<?xml version="1.0" standalone="no"?>
 <!DOCTYPE svg PUBLIC "-//W3C//DTD SVG 1.1//EN" 
 "http://www.w3.org/Graphics/SVG/1.1/DTD/svg11.dtd"> 
<svg xmlns="http://www.w3.org/2000/svg" version="1.1" 
    width="3.8227cm" height="2.0447cm" viewBox="0 0 15050 8050 ">
<title>SVG Picture created as sd-breakout-brd.svg date 2018/01/11 11:51:12 </title>
  <desc>Picture generated by PCBNEW </desc>
<g style="fill:#000000; fill-opacity:1;stroke:#000000; stroke-opacity:1;
stroke-linecap:round; stroke-linejoin:round; "
 transform="translate(0 0) scale(1 1)">
</g>
<g style="fill:#000000; fill-opacity:0.0; 
stroke:#000000; stroke-width:-0.000393701; stroke-opacity:1; 
stroke-linecap:round; stroke-linejoin:round;">
</g>
<g style="fill:#000000; fill-opacity:0.0; 
stroke:#000000; stroke-width:118.11; stroke-opacity:1; 
stroke-linecap:round; stroke-linejoin:round;">
<path d="M751 6846
L751 6256
L948 6677
L1145 6256
L1145 6846
" />
<path d="M1426 6846
L1426 6256
" />
<path d="M1679 6818
L1763 6846
L1904 6846
L1960 6818
L1988 6790
L2016 6734
L2016 6677
L1988 6621
L1960 6593
L1904 6565
L1792 6537
L1735 6509
L1707 6481
L1679 6424
L1679 6368
L1707 6312
L1735 6284
L1792 6256
L1932 6256
L2016 6284
" />
<path d="M2382 6256
L2495 6256
L2551 6284
L2607 6340
L2635 6452
L2635 6649
L2607 6762
L2551 6818
L2495 6846
L2382 6846
L2326 6818
L2270 6762
L2241 6649
L2241 6452
L2270 6340
L2326 6284
L2382 6256
" />
<path d="M1429 5284
L1373 5256
L1288 5256
L1204 5284
L1148 5340
L1120 5396
L1092 5509
L1092 5593
L1120 5706
L1148 5762
L1204 5818
L1288 5846
L1345 5846
L1429 5818
L1457 5790
L1457 5593
L1345 5593
" />
<path d="M1710 5846
L1710 5256
L2048 5846
L2048 5256
" />
<path d="M2329 5846
L2329 5256
L2470 5256
L2554 5284
L2610 5340
L2638 5396
L2666 5509
L2666 5593
L2638 5706
L2610 5762
L2554 5818
L2470 5846
L2329 5846
" />
<path d="M1120 4818
L1204 4846
L1345 4846
L1401 4818
L1429 4790
L1457 4734
L1457 4677
L1429 4621
L1401 4593
L1345 4565
L1232 4537
L1176 4509
L1148 4481
L1120 4424
L1120 4368
L1148 4312
L1176 4284
L1232 4256
L1373 4256
L1457 4284
" />
<path d="M2048 4790
L2020 4818
L1935 4846
L1879 4846
L1795 4818
L1738 4762
L1710 4706
L1682 4593
L1682 4509
L1710 4396
L1738 4340
L1795 4284
L1879 4256
L1935 4256
L2020 4284
L2048 4312
" />
<path d="M2301 4846
L2301 4256
" />
<path d="M2638 4846
L2385 4509
" />
<path d="M2638 4256
L2301 4593
" />
<path d="M907 3256
L1273 3256
L1076 3481
L1160 3481
L1217 3509
L1245 3537
L1273 3593
L1273 3734
L1245 3790
L1217 3818
L1160 3846
L992 3846
L935 3818
L907 3790
" />
<path d="M1526 3790
L1554 3818
L1526 3846
L1498 3818
L1526 3790
L1526 3846
" />
<path d="M1751 3256
L2116 3256
L1920 3481
L2004 3481
L2060 3509
L2088 3537
L2116 3593
L2116 3734
L2088 3790
L2060 3818
L2004 3846
L1835 3846
L1779 3818
L1751 3790
" />
<path d="M2285 3256
L2482 3846
L2679 3256
" />
<path d="M751 2846
L751 2256
L948 2677
L1145 2256
L1145 2846
" />
<path d="M1538 2256
L1651 2256
L1707 2284
L1763 2340
L1792 2452
L1792 2649
L1763 2762
L1707 2818
L1651 2846
L1538 2846
L1482 2818
L1426 2762
L1398 2649
L1398 2452
L1426 2340
L1482 2284
L1538 2256
" />
<path d="M2016 2818
L2101 2846
L2241 2846
L2298 2818
L2326 2790
L2354 2734
L2354 2677
L2326 2621
L2298 2593
L2241 2565
L2129 2537
L2073 2509
L2045 2481
L2016 2424
L2016 2368
L2045 2312
L2073 2284
L2129 2256
L2270 2256
L2354 2284
" />
<path d="M2607 2846
L2607 2256
" />
<path d="M1729 1818
L1813 1846
L1954 1846
L2010 1818
L2038 1790
L2067 1734
L2067 1677
L2038 1621
L2010 1593
L1954 1565
L1842 1537
L1785 1509
L1757 1481
L1729 1424
L1729 1368
L1757 1312
L1785 1284
L1842 1256
L1982 1256
L2067 1284
" />
<path d="M2292 1818
L2376 1846
L2516 1846
L2573 1818
L2601 1790
L2629 1734
L2629 1677
L2601 1621
L2573 1593
L2516 1565
L2404 1537
L2348 1509
L2320 1481
L2292 1424
L2292 1368
L2320 1312
L2348 1284
L2404 1256
L2545 1256
L2629 1284
" />
<path d="M9081 946
L9081 552
" />
<path d="M9081 609
L9109 581
L9165 552
L9250 552
L9306 581
L9334 637
L9334 946
" />
<path d="M9334 637
L9362 581
L9418 552
L9503 552
L9559 581
L9587 637
L9587 946
" />
<path d="M9868 946
L9868 552
" />
<path d="M9868 356
L9840 384
L9868 412
L9896 384
L9868 356
L9868 412
" />
<path d="M10403 918
L10346 946
L10234 946
L10178 918
L10149 890
L10121 834
L10121 665
L10149 609
L10178 581
L10234 552
L10346 552
L10403 581
" />
<path d="M10656 946
L10656 552
" />
<path d="M10656 665
L10684 609
L10712 581
L10768 552
L10824 552
" />
<path d="M11106 946
L11049 918
L11021 890
L10993 834
L10993 665
L11021 609
L11049 581
L11106 552
L11190 552
L11246 581
L11274 609
L11302 665
L11302 834
L11274 890
L11246 918
L11190 946
L11106 946
" />
<path d="M11977 918
L12062 946
L12202 946
L12259 918
L12287 890
L12315 834
L12315 777
L12287 721
L12259 693
L12202 665
L12090 637
L12034 609
L12005 581
L11977 524
L11977 468
L12005 412
L12034 384
L12090 356
L12230 356
L12315 384
" />
<path d="M12568 946
L12568 356
L12708 356
L12793 384
L12849 440
L12877 496
L12905 609
L12905 693
L12877 806
L12849 862
L12793 918
L12708 946
L12568 946
" />
</g>
<g style="fill:#000000; fill-opacity:0.0; 
stroke:#000000; stroke-width:0; stroke-opacity:1; 
stroke-linecap:round; stroke-linejoin:round;">
</g>
<g style="fill:#000000; fill-opacity:1.0; 
stroke:#000000; stroke-width:0; stroke-opacity:1; 
stroke-linecap:round; stroke-linejoin:round;">
<polyline style="fill-rule:evenodd;"
points="13429,7429
12429,7429
12429,7029
13429,7029
13429,7429
" /> 
<polyline style="fill-rule:evenodd;"
points="13429,1779
12429,1779
12429,1379
13429,1379
13429,1779
" /> 
<polyline style="fill-rule:evenodd;"
points="7969,6959
7369,6959
7369,6759
7969,6759
7969,6959
" /> 
<polyline style="fill-rule:evenodd;"
points="7969,6534
7369,6534
7369,6334
7969,6334
7969,6534
" /> 
<polyline style="fill-rule:evenodd;"
points="7969,6109
7369,6109
7369,5909
7969,5909
7969,6109
" /> 
<polyline style="fill-rule:evenodd;"
points="7969,5684
7369,5684
7369,5484
7969,5484
7969,5684
" /> 
<polyline style="fill-rule:evenodd;"
points="7969,5259
7369,5259
7369,5059
7969,5059
7969,5259
" /> 
<polyline style="fill-rule:evenodd;"
points="7969,4834
7369,4834
7369,4634
7969,4634
7969,4834
" /> 
<polyline style="fill-rule:evenodd;"
points="7969,4409
7369,4409
7369,4209
7969,4209
7969,4409
" /> 
<polyline style="fill-rule:evenodd;"
points="7969,3984
7369,3984
7369,3784
7969,3784
7969,3984
" /> 
<polyline style="fill-rule:evenodd;"
points="7969,3559
7369,3559
7369,3359
7969,3359
7969,3559
" /> 
<polyline style="fill-rule:evenodd;"
points="9679,1779
8679,1779
8679,1379
9679,1379
9679,1779
" /> 
<polyline style="fill-rule:evenodd;"
points="5425,6382
5425,6776
4437,6776
4437,6382
5425,6382
" /> 
<polyline style="fill-rule:evenodd;"
points="5425,4382
5425,4776
4437,4776
4437,4382
5425,4382
" /> 
<polyline style="fill-rule:evenodd;"
points="5425,2382
5425,2776
4437,2776
4437,2382
5425,2382
" /> 
<polyline style="fill-rule:evenodd;"
points="4122,5382
4122,5776
3133,5776
3133,5382
4122,5382
" /> 
<polyline style="fill-rule:evenodd;"
points="4122,3382
4122,3776
3133,3776
3133,3382
4122,3382
" /> 
<polyline style="fill-rule:evenodd;"
points="4122,1382
4122,1776
3133,1776
3133,1382
4122,1382
" /> 
</g>
<g style="fill:#000000; fill-opacity:1.0; 
stroke:#000000; stroke-width:98.4252; stroke-opacity:1; 
stroke-linecap:round; stroke-linejoin:round;">
</g>
<g style="fill:#000000; fill-opacity:0.0; 
stroke:#000000; stroke-width:98.4252; stroke-opacity:1; 
stroke-linecap:round; stroke-linejoin:round;">
<path d="M7669 6009
L5501 6009
" />
<path d="M5501 6009
L4931 6579
" />
<path d="M3627 5579
L7664 5579
" />
<path d="M7664 5579
L7669 5584
" />
<path d="M7669 5159
L5511 5159
" />
<path d="M5511 5159
L4931 4579
" />
<path d="M7669 4734
L6934 4734
" />
<path d="M5779 3579
L3627 3579
" />
<path d="M6934 4734
L5779 3579
" />
<path d="M4931 2579
L5379 2579
" />
<path d="M5379 2579
L7109 4309
" />
<path d="M7109 4309
L7669 4309
" />
<path d="M7669 3884
L7334 3884
" />
<path d="M5029 1579
L3627 1579
" />
<path d="M7334 3884
L5029 1579
" />
</g>
<g style="fill:#FFFFFF; fill-opacity:0.0; 
stroke:#FFFFFF; stroke-width:98.4252; stroke-opacity:1; 
stroke-linecap:round; stroke-linejoin:round;">
</g>
<g style="fill:#000000; fill-opacity:0.0; 
stroke:#000000; stroke-width:98.4252; stroke-opacity:1; 
stroke-linecap:round; stroke-linejoin:round;">
</g>
<g style="fill:#000000; fill-opacity:0.0; 
stroke:#000000; stroke-width:59.0551; stroke-opacity:1; 
stroke-linecap:round; stroke-linejoin:round;">
<path d="M779 29
L14279 29
" />
<path d="M14279.5 8029.53 A750 750 0.0 0 0 15029.5 7279.53 " />
<path d="M779 8029
L14279 8029
" />
<path d="M15029 779
L15029 7279
" />
<path d="M15029.5 779.528 A750 750 0.0 0 0 14279.5 29.528 " />
<path d="M29 779
L29 7279
" />
<path d="M29.528 7279.53 A750 750 0.0 0 0 779.528 8029.53 " />
<path d="M779.528 29.528 A750 750 0.0 0 0 29.528 779.528 " />
</g> 
</svg>
